<svg width="20" height="20" viewBox="0 0 20 20" fill="none" xmlns="http://www.w3.org/2000/svg">
<path d="M10 16C10.5523 16 11 16.4477 11 17V19C11 19.5523 10.5523 20 10 20C9.44771 20 9 19.5523 9 19V17C9 16.4477 9.44771 16 10 16ZM4.33984 14.2432C4.73037 13.8526 5.36338 13.8526 5.75391 14.2432C6.14443 14.6337 6.14443 15.2667 5.75391 15.6572L4.33984 17.0713C3.94932 17.4618 3.31631 17.4618 2.92578 17.0713C2.53526 16.6808 2.53526 16.0478 2.92578 15.6572L4.33984 14.2432ZM14.2461 14.2432C14.6366 13.8526 15.2696 13.8526 15.6602 14.2432L17.0742 15.6572C17.4647 16.0478 17.4647 16.6808 17.0742 17.0713C16.6837 17.4618 16.0507 17.4618 15.6602 17.0713L14.2461 15.6572C13.8556 15.2667 13.8556 14.6337 14.2461 14.2432ZM10 6C12.2091 6 14 7.79086 14 10C14 12.2091 12.2091 14 10 14C7.79086 14 6 12.2091 6 10C6 7.79086 7.79086 6 10 6ZM3 9C3.55228 9 4 9.44771 4 10C4 10.5523 3.55228 11 3 11H1C0.447715 11 4.67296e-08 10.5523 0 10C2.41411e-08 9.44771 0.447715 9 1 9H3ZM19 9C19.5523 9 20 9.44771 20 10C20 10.5523 19.5523 11 19 11H17C16.4477 11 16 10.5523 16 10C16 9.44771 16.4477 9 17 9H19ZM2.92578 2.92871C3.31631 2.53819 3.94932 2.53819 4.33984 2.92871L5.75391 4.34277C6.14443 4.7333 6.14443 5.36631 5.75391 5.75684C5.36338 6.14736 4.73037 6.14736 4.33984 5.75684L2.92578 4.34277C2.53526 3.95225 2.53526 3.31924 2.92578 2.92871ZM15.6602 2.92871C16.0507 2.53819 16.6837 2.53819 17.0742 2.92871C17.4647 3.31924 17.4647 3.95225 17.0742 4.34277L15.6602 5.75684C15.2696 6.14736 14.6366 6.14736 14.2461 5.75684C13.8556 5.36631 13.8556 4.7333 14.2461 4.34277L15.6602 2.92871ZM10 0C10.5523 0 11 0.447715 11 1V3C11 3.55228 10.5523 4 10 4C9.44771 4 9 3.55228 9 3V1C9 0.447715 9.44771 0 10 0Z" fill="white"/>
</svg>
