<svg width="40" height="40" viewBox="0 0 40 40" fill="none" xmlns="http://www.w3.org/2000/svg">
<path d="M23.75 33.3359C23.75 35.407 22.0711 37.0859 20 37.0859C17.9289 37.0859 16.25 35.407 16.25 33.3359C16.25 31.2649 17.9289 29.5859 20 29.5859C22.0711 29.5859 23.75 31.2649 23.75 33.3359Z" fill="white"/>
<path d="M10.418 33.3359C10.418 35.407 8.73904 37.0859 6.66797 37.0859C4.5969 37.0859 2.91797 35.407 2.91797 33.3359C2.91797 31.2649 4.5969 29.5859 6.66797 29.5859C8.73904 29.5859 10.418 31.2649 10.418 33.3359Z" fill="white"/>
<path d="M37.082 33.3359C37.082 35.407 35.4031 37.0859 33.332 37.0859C31.261 37.0859 29.582 35.407 29.582 33.3359C29.582 31.2649 31.261 29.5859 33.332 29.5859C35.4031 29.5859 37.082 31.2649 37.082 33.3359Z" fill="white"/>
<path d="M23.75 6.66406C23.75 8.73513 22.0711 10.4141 20 10.4141C17.9289 10.4141 16.25 8.73513 16.25 6.66406C16.25 4.59299 17.9289 2.91406 20 2.91406C22.0711 2.91406 23.75 4.59299 23.75 6.66406Z" fill="white"/>
<path d="M21.2513 31.6693C21.2513 32.3526 20.6846 32.9193 20.0013 32.9193C19.318 32.9193 18.7513 32.3526 18.7513 31.6693V19.5859H11.668C9.03464 19.5859 7.91797 20.7026 7.91797 23.3359L7.91797 31.6693C7.91797 32.3526 7.3513 32.9193 6.66797 32.9193C5.98464 32.9193 5.41797 32.3526 5.41797 31.6693L5.41797 23.3359C5.41797 19.3026 7.63464 17.0859 11.668 17.0859H18.7513V8.33594C18.7513 7.6526 19.318 7.08594 20.0013 7.08594C20.6846 7.08594 21.2513 7.6526 21.2513 8.33594V17.0859H28.3346C32.368 17.0859 34.5846 19.3026 34.5846 23.3359V31.6693C34.5846 32.3526 34.018 32.9193 33.3346 32.9193C32.6513 32.9193 32.0846 32.3526 32.0846 31.6693V23.3359C32.0846 20.7026 30.968 19.5859 28.3346 19.5859H21.2513V31.6693Z" fill="white"/>
</svg>
