<svg width="40" height="40" viewBox="0 0 40 40" fill="none" xmlns="http://www.w3.org/2000/svg">
<path d="M36.6673 36.668H3.33398C2.65065 36.668 2.08398 36.1013 2.08398 35.418C2.08398 34.7346 2.65065 34.168 3.33398 34.168H36.6673C37.3507 34.168 37.9173 34.7346 37.9173 35.418C37.9173 36.1013 37.3507 36.668 36.6673 36.668Z" fill="white"/>
<path d="M16.25 6.66536V36.6654H23.75V6.66536C23.75 4.83203 23 3.33203 20.75 3.33203H19.25C17 3.33203 16.25 4.83203 16.25 6.66536Z" fill="white"/>
<path d="M5 16.6654V36.6654H11.6667V16.6654C11.6667 14.832 11 13.332 9 13.332H7.66667C5.66667 13.332 5 14.832 5 16.6654Z" fill="white"/>
<path d="M28.334 25.0013V36.668H35.0007V25.0013C35.0007 23.168 34.334 21.668 32.334 21.668H31.0007C29.0007 21.668 28.334 23.168 28.334 25.0013Z" fill="white"/>
</svg>
