<svg width="40" height="40" viewBox="0 0 40 40" fill="none" xmlns="http://www.w3.org/2000/svg">
<path d="M35.8835 18.1148L33.3501 15.5815C32.9168 15.1482 32.5668 14.2982 32.5668 13.6982V10.0982C32.5668 8.63151 31.3668 7.43151 29.9001 7.43151H26.3168C25.7168 7.43151 24.8668 7.08151 24.4335 6.64818L21.9001 4.11484C20.8668 3.08151 19.1668 3.08151 18.1335 4.11484L15.5668 6.64818C15.1501 7.08151 14.3001 7.43151 13.6835 7.43151H10.1001C8.63346 7.43151 7.43346 8.63151 7.43346 10.0982V13.6815C7.43346 14.2815 7.08346 15.1315 6.65013 15.5648L4.1168 18.0982C3.08346 19.1315 3.08346 20.8315 4.1168 21.8648L6.65013 24.3982C7.08346 24.8315 7.43346 25.6815 7.43346 26.2815V29.8648C7.43346 31.3315 8.63346 32.5315 10.1001 32.5315H13.6835C14.2835 32.5315 15.1335 32.8815 15.5668 33.3148L18.1001 35.8482C19.1335 36.8815 20.8335 36.8815 21.8668 35.8482L24.4001 33.3148C24.8335 32.8815 25.6835 32.5315 26.2835 32.5315H29.8668C31.3335 32.5315 32.5335 31.3315 32.5335 29.8648V26.2815C32.5335 25.6815 32.8835 24.8315 33.3168 24.3982L35.8501 21.8648C36.9335 20.8482 36.9335 19.1482 35.8835 18.1148ZM13.3335 14.9982C13.3335 14.0815 14.0835 13.3315 15.0001 13.3315C15.9168 13.3315 16.6668 14.0815 16.6668 14.9982C16.6668 15.9148 15.9335 16.6648 15.0001 16.6648C14.0835 16.6648 13.3335 15.9148 13.3335 14.9982ZM15.8835 25.8815C15.6335 26.1315 15.3168 26.2482 15.0001 26.2482C14.6835 26.2482 14.3668 26.1315 14.1168 25.8815C13.6335 25.3982 13.6335 24.5982 14.1168 24.1148L24.1168 14.1148C24.6001 13.6315 25.4001 13.6315 25.8835 14.1148C26.3668 14.5982 26.3668 15.3982 25.8835 15.8815L15.8835 25.8815ZM25.0001 26.6648C24.0668 26.6648 23.3168 25.9148 23.3168 24.9982C23.3168 24.0815 24.0668 23.3315 24.9835 23.3315C25.9001 23.3315 26.6501 24.0815 26.6501 24.9982C26.6501 25.9148 25.9168 26.6648 25.0001 26.6648Z" fill="white"/>
</svg>
