<svg width="40" height="40" viewBox="0 0 40 40" fill="none" xmlns="http://www.w3.org/2000/svg">
<path d="M32.2326 24.1487L30.5659 21.382C30.2159 20.7654 29.8993 19.5987 29.8993 18.9154V14.6987C29.8993 10.782 27.5993 7.3987 24.2826 5.81536C23.4159 4.28203 21.8159 3.33203 19.9826 3.33203C18.1659 3.33203 16.5326 4.31536 15.6659 5.86536C12.4159 7.48203 10.1659 10.832 10.1659 14.6987V18.9154C10.1659 19.5987 9.84925 20.7654 9.49925 21.3654L7.81592 24.1487C7.14925 25.2654 6.99925 26.4987 7.41592 27.632C7.81592 28.7487 8.76592 29.6154 9.99925 30.032C13.2326 31.132 16.6326 31.6654 20.0326 31.6654C23.4326 31.6654 26.8326 31.132 30.0659 30.0487C31.2326 29.6654 32.1326 28.782 32.5659 27.632C32.9993 26.482 32.8826 25.2154 32.2326 24.1487Z" fill="white"/>
<path d="M24.7174 33.3487C24.0174 35.282 22.1674 36.6654 20.0008 36.6654C18.6841 36.6654 17.3841 36.132 16.4674 35.182C15.9341 34.682 15.5341 34.0154 15.3008 33.332C15.5174 33.3654 15.7341 33.382 15.9674 33.4154C16.3508 33.4654 16.7508 33.5154 17.1508 33.5487C18.1008 33.632 19.0674 33.682 20.0341 33.682C20.9841 33.682 21.9341 33.632 22.8674 33.5487C23.2174 33.5154 23.5674 33.4987 23.9008 33.4487C24.1674 33.4154 24.4341 33.382 24.7174 33.3487Z" fill="white"/>
</svg>
