<svg width="40" height="40" viewBox="0 0 40 40" fill="none" xmlns="http://www.w3.org/2000/svg">
<path d="M27.0827 37.5013C28.6935 37.5013 29.9993 36.1955 29.9993 34.5846C29.9993 32.9738 28.6935 31.668 27.0827 31.668C25.4719 31.668 24.166 32.9738 24.166 34.5846C24.166 36.1955 25.4719 37.5013 27.0827 37.5013Z" fill="white"/>
<path d="M13.7507 37.5013C15.3615 37.5013 16.6673 36.1955 16.6673 34.5846C16.6673 32.9738 15.3615 31.668 13.7507 31.668C12.1398 31.668 10.834 32.9738 10.834 34.5846C10.834 36.1955 12.1398 37.5013 13.7507 37.5013Z" fill="white"/>
<path d="M8.06732 6.56536L7.73398 10.6487C7.66732 11.432 8.28398 12.082 9.06732 12.082H34.584C35.284 12.082 35.8673 11.5487 35.9173 10.8487C36.134 7.8987 33.884 5.4987 30.934 5.4987H10.4507C10.284 4.76536 9.95065 4.06536 9.43398 3.48203C8.60065 2.5987 7.43398 2.08203 6.23398 2.08203H3.33398C2.65065 2.08203 2.08398 2.6487 2.08398 3.33203C2.08398 4.01536 2.65065 4.58203 3.33398 4.58203H6.23398C6.75065 4.58203 7.23398 4.7987 7.58398 5.16536C7.93398 5.5487 8.10065 6.0487 8.06732 6.56536Z" fill="white"/>
<path d="M34.1828 14.582H8.6161C7.9161 14.582 7.34944 15.1154 7.28277 15.7987L6.68277 23.0487C6.44944 25.8987 8.68277 28.332 11.5328 28.332H30.0661C32.5661 28.332 34.7661 26.282 34.9494 23.782L35.4994 15.9987C35.5661 15.232 34.9661 14.582 34.1828 14.582Z" fill="white"/>
</svg>
