<svg width="40" height="40" viewBox="0 0 40 40" fill="none" xmlns="http://www.w3.org/2000/svg">
<path d="M32.2175 9.46615L21.7675 3.83281C20.6674 3.23281 19.3341 3.23281 18.2341 3.83281L7.78411 9.46615C7.01745 9.88281 6.55078 10.6828 6.55078 11.5995C6.55078 12.4995 7.01745 13.3161 7.78411 13.7328L18.2341 19.3661C18.7841 19.6661 19.4008 19.8161 20.0008 19.8161C20.6008 19.8161 21.2175 19.6661 21.7675 19.3661L32.2175 13.7328C32.9841 13.3161 33.4508 12.5161 33.4508 11.5995C33.4508 10.6828 32.9841 9.88281 32.2175 9.46615Z" fill="white"/>
<path d="M16.5173 21.318L6.78398 16.4513C6.03398 16.0846 5.16732 16.118 4.46732 16.5513C3.75065 17.0013 3.33398 17.7513 3.33398 18.5846V27.768C3.33398 29.3513 4.21732 30.7846 5.63398 31.5013L15.3507 36.368C15.684 36.5346 16.0507 36.618 16.4173 36.618C16.8507 36.618 17.284 36.5013 17.6673 36.268C18.384 35.8346 18.8007 35.068 18.8007 34.2346V25.0513C18.8173 23.4513 17.934 22.018 16.5173 21.318Z" fill="white"/>
<path d="M35.5326 16.5502C34.8159 16.1169 33.9492 16.0669 33.2159 16.4502L23.4992 21.3169C22.0826 22.0336 21.1992 23.4502 21.1992 25.0502V34.2336C21.1992 35.0669 21.6159 35.8336 22.3326 36.2669C22.7159 36.5002 23.1492 36.6169 23.5826 36.6169C23.9492 36.6169 24.3159 36.5336 24.6492 36.3669L34.3659 31.5002C35.7826 30.7836 36.6659 29.3669 36.6659 27.7669V18.5836C36.6659 17.7502 36.2492 17.0002 35.5326 16.5502Z" fill="white"/>
</svg>
