<svg width="40" height="40" viewBox="0 0 40 40" fill="none" xmlns="http://www.w3.org/2000/svg">
<path d="M33.5007 15.3677C30.484 15.3677 29.2507 13.2344 30.7507 10.6177C31.6173 9.10103 31.1007 7.1677 29.584 6.30103L26.7007 4.65103C25.384 3.8677 23.684 4.33437 22.9007 5.65103L22.7173 5.9677C21.2173 8.58437 18.7507 8.58437 17.234 5.9677L17.0507 5.65103C16.3007 4.33437 14.6007 3.8677 13.284 4.65103L10.4007 6.30103C8.88398 7.1677 8.36732 9.1177 9.23398 10.6344C10.7507 13.2344 9.51732 15.3677 6.50065 15.3677C4.76732 15.3677 3.33398 16.7844 3.33398 18.5344V21.4677C3.33398 23.201 4.75065 24.6344 6.50065 24.6344C9.51732 24.6344 10.7507 26.7677 9.23398 29.3844C8.36732 30.901 8.88398 32.8344 10.4007 33.701L13.284 35.351C14.6007 36.1344 16.3007 35.6677 17.084 34.351L17.2673 34.0344C18.7673 31.4177 21.234 31.4177 22.7507 34.0344L22.934 34.351C23.7173 35.6677 25.4173 36.1344 26.734 35.351L29.6173 33.701C31.134 32.8344 31.6507 30.8844 30.784 29.3844C29.2673 26.7677 30.5007 24.6344 33.5173 24.6344C35.2507 24.6344 36.684 23.2177 36.684 21.4677V18.5344C36.6673 16.801 35.2507 15.3677 33.5007 15.3677ZM20.0007 25.4177C17.0173 25.4177 14.584 22.9844 14.584 20.001C14.584 17.0177 17.0173 14.5844 20.0007 14.5844C22.984 14.5844 25.4173 17.0177 25.4173 20.001C25.4173 22.9844 22.984 25.4177 20.0007 25.4177Z" fill="white"/>
</svg>
