<svg width="40" height="40" viewBox="0 0 40 40" fill="none" xmlns="http://www.w3.org/2000/svg">
<path d="M22.8842 5.84844L25.8175 11.7151C26.2175 12.5318 27.2842 13.3151 28.1842 13.4651L33.5008 14.3484C36.9008 14.9151 37.7008 17.3818 35.2508 19.8151L31.1175 23.9484C30.4175 24.6484 30.0342 25.9984 30.2508 26.9651L31.4342 32.0818C32.3675 36.1318 30.2175 37.6984 26.6342 35.5818L21.6508 32.6318C20.7508 32.0984 19.2675 32.0984 18.3508 32.6318L13.3675 35.5818C9.80083 37.6984 7.63416 36.1151 8.56749 32.0818L9.75082 26.9651C9.96749 25.9984 9.58416 24.6484 8.88416 23.9484L4.75082 19.8151C2.31749 17.3818 3.10083 14.9151 6.50083 14.3484L11.8175 13.4651C12.7008 13.3151 13.7675 12.5318 14.1675 11.7151L17.1008 5.84844C18.7008 2.6651 21.3008 2.6651 22.8842 5.84844Z" fill="white"/>
</svg>
