<svg width="40" height="40" viewBox="0 0 40 40" fill="none" xmlns="http://www.w3.org/2000/svg">
<path fill-rule="evenodd" clip-rule="evenodd" d="M2.98725 24.2585L2.97596 39.9981L36.6615 40L36.6597 23.944C36.6225 23.7883 33.8725 21.0604 33.6379 20.841L25.4314 12.534C25.0846 12.1882 24.7482 11.8186 24.3914 11.4799L20.2586 7.34673L8.41165 18.959C8.03074 19.3287 7.64917 19.6742 7.32517 20.033L2.98725 24.2585ZM0 20.2353L0.00177167 24.0687C1.93112 22.2718 4.4079 19.759 6.30403 17.8738L11.9946 12.2982C12.1981 12.0984 12.3952 11.8781 12.6143 11.674C13.8854 10.4893 15.146 9.15933 16.4174 7.94515C16.8463 7.53566 17.3194 7.09147 17.7149 6.68456L20.2586 4.17908C20.577 4.36519 21.6482 5.53929 22.1139 5.99637C24.1708 8.01477 26.2226 10.2144 28.2767 12.2215L38.7623 22.8336C39.1204 23.2558 39.6009 23.6416 39.9794 24.0483L40 19.8748C39.6698 19.635 39.1432 19.0451 38.805 18.6771C38.4026 18.2392 37.963 17.8757 37.5469 17.4448C37.3173 17.2069 37.1618 17.0285 36.9392 16.8077L34.5056 14.3266C33.314 13.156 31.9019 11.6416 30.7765 10.5833C29.6823 9.55429 28.198 7.91233 27.0985 6.86106C26.8728 6.64541 26.6979 6.4586 26.4736 6.2392C25.0527 4.84829 23.5685 3.22321 22.1374 1.85854C21.9135 1.645 21.7541 1.4303 21.5288 1.22356L20.6073 0.308468C20.4304 0.123059 20.4508 0.0991503 20.2583 0C20.011 0.196191 19.881 0.345737 19.6241 0.615294C18.4922 1.80346 16.1702 3.88468 15.1659 4.99994C14.9639 5.22426 14.7429 5.38834 14.527 5.6075C14.281 5.85713 14.1326 6.00902 13.9036 6.22842L4.95158 15.0268C4.74275 15.2263 4.54742 15.4527 4.33017 15.6479L0.490751 19.407C0.257334 19.6292 0 19.7236 0 20.2353ZM13.9508 33.6516L19.4708 33.6525L19.4646 29.0946L13.9494 29.067L13.9508 33.6516ZM13.9508 27.5357L19.4717 27.5296L19.4644 21.9528L13.9581 21.9244L13.9508 27.5357ZM20.6399 27.538L25.9239 27.5312L25.9177 21.9354L20.6361 21.9244L20.6399 27.538ZM20.6403 33.6513L25.919 33.6537L25.9186 29.0745L20.6403 29.0677V33.6513Z" fill="white"/>
</svg>
