<svg width="40" height="40" viewBox="0 0 40 40" fill="none" xmlns="http://www.w3.org/2000/svg">
<path d="M15.0007 3.33203C10.634 3.33203 7.08398 6.88203 7.08398 11.2487C7.08398 15.532 10.434 18.9987 14.8007 19.1487C14.934 19.132 15.0673 19.132 15.1673 19.1487C15.2007 19.1487 15.2173 19.1487 15.2506 19.1487C15.2673 19.1487 15.2673 19.1487 15.284 19.1487C19.5506 18.9987 22.9006 15.532 22.9173 11.2487C22.9173 6.88203 19.3673 3.33203 15.0007 3.33203Z" fill="white"/>
<path d="M23.4676 23.5828C18.8176 20.4828 11.2342 20.4828 6.55091 23.5828C4.43424 24.9995 3.26758 26.9161 3.26758 28.9661C3.26758 31.0161 4.43424 32.9161 6.53425 34.3161C8.86758 35.8828 11.9342 36.6661 15.0009 36.6661C18.0676 36.6661 21.1342 35.8828 23.4676 34.3161C25.5676 32.8995 26.7342 30.9995 26.7342 28.9328C26.7176 26.8828 25.5676 24.9828 23.4676 23.5828Z" fill="white"/>
<path d="M33.3176 12.2342C33.5842 15.4675 31.2842 18.3008 28.1009 18.6842C28.0842 18.6842 28.0842 18.6842 28.0676 18.6842H28.0176C27.9176 18.6842 27.8176 18.6841 27.7342 18.7175C26.1176 18.8008 24.6342 18.2841 23.5176 17.3341C25.2342 15.8008 26.2176 13.5008 26.0176 11.0008C25.9009 9.65082 25.4342 8.41748 24.7342 7.36748C25.3676 7.05082 26.1009 6.85082 26.8509 6.78415C30.1176 6.50082 33.0342 8.93415 33.3176 12.2342Z" fill="white"/>
<path d="M36.6497 27.6494C36.5164 29.266 35.4831 30.666 33.7497 31.616C32.0831 32.5327 29.9831 32.966 27.8997 32.916C29.0997 31.8327 29.7997 30.4827 29.9331 29.0494C30.0997 26.9827 29.1164 24.9994 27.1497 23.416C26.0331 22.5327 24.7331 21.8327 23.3164 21.316C26.9997 20.2494 31.6331 20.966 34.4831 23.266C36.0164 24.4994 36.7997 26.0494 36.6497 27.6494Z" fill="white"/>
</svg>
