<svg width="13" height="21" viewBox="0 0 13 21" fill="none" xmlns="http://www.w3.org/2000/svg">
<path d="M6.12012 0C6.53433 0 6.87012 0.335786 6.87012 0.75V2.16309H7.93066C10.3634 2.16325 12.2635 4.21202 12.2637 6.67285C12.2637 7.08684 11.9276 7.42249 11.5137 7.42285C11.0995 7.42285 10.7637 7.08707 10.7637 6.67285C10.7635 4.97087 9.4671 3.66325 7.93066 3.66309H6.87012V9.89453L9.62891 10.8535L9.63379 10.8555C10.3252 11.1006 11.015 11.4481 11.5166 12.0879C12.0252 12.7367 12.2636 13.5852 12.2637 14.6768C12.2637 16.8659 10.5551 18.7029 8.38281 18.7031H6.87012V20.1143L6.86621 20.1914C6.82744 20.5692 6.50817 20.8643 6.12012 20.8643C5.73213 20.8642 5.41277 20.5692 5.37402 20.1914L5.37012 20.1143V18.7031H4.33203C1.89919 18.7029 0 16.6533 0 14.1924C0.000303045 13.7784 0.335973 13.4424 0.75 13.4424C1.16389 13.4425 1.4997 13.7785 1.5 14.1924C1.5 15.8945 2.79553 17.2029 4.33203 17.2031H5.37012V10.9619L2.63379 10.0117L2.62988 10.0098C1.93835 9.76467 1.24874 9.41729 0.74707 8.77734C0.238447 8.12851 0 7.28015 0 6.18848C0.000302256 3.99952 1.70859 2.16309 3.88086 2.16309H5.37012V0.75C5.37012 0.335845 5.70598 9.42423e-05 6.12012 0ZM6.87012 17.2031H8.38281C9.66348 17.2029 10.7637 16.1021 10.7637 14.6768C10.7636 13.8 10.5736 13.3169 10.3359 13.0137C10.0913 12.7016 9.71586 12.4762 9.13281 12.2695V12.2686L6.87012 11.4824V17.2031ZM3.88086 3.66309C2.60021 3.66309 1.5003 4.76332 1.5 6.18848C1.5 7.06548 1.68906 7.5493 1.92676 7.85254C2.17077 8.16381 2.54537 8.38845 3.12598 8.59473L5.37012 9.37402V3.66309H3.88086Z" fill="#1E1E2A"/>
</svg>
