<svg width="19" height="18" viewBox="0 0 19 18" fill="none" xmlns="http://www.w3.org/2000/svg">
<path d="M13.0273 0C16.0986 0 18.4998 2.62995 18.5 5.78027C18.5 9.16353 17.0161 11.8402 15.2373 13.7666C13.4687 15.682 11.3708 16.8988 10.0215 17.3809L10.0186 17.3828V17.3818C9.76933 17.4697 9.48484 17.5 9.24219 17.5C8.99946 17.5 8.71414 17.4698 8.46484 17.3818L8.46094 17.3809C7.12006 16.8987 5.0271 15.6817 3.26074 13.7666C1.48416 11.8404 0 9.16353 0 5.78027C0.000214763 2.62995 2.40145 0 5.47266 0C6.94385 0.000118348 8.27028 0.609921 9.24902 1.59961C10.2227 0.617768 11.5586 0.000120182 13.0273 0ZM13.0273 1.5C11.7507 1.50015 10.5862 2.16242 9.86426 3.19531C9.72413 3.39563 9.49545 3.51531 9.25098 3.51562C9.00636 3.5159 8.77731 3.39647 8.63672 3.19629C7.89913 2.14608 6.75002 1.50014 5.47266 1.5C3.3182 1.5 1.50021 3.36722 1.5 5.78027C1.5 8.69374 2.77134 11.024 4.36328 12.75C5.96304 14.4844 7.84874 15.5657 8.96387 15.9678L9.0625 15.9883C9.10982 15.9948 9.17077 16 9.24219 16C9.31363 16 9.37455 15.9948 9.42188 15.9883L9.51953 15.9678C10.6418 15.5663 12.5331 14.4847 14.1357 12.749C15.7293 11.0232 17 8.69355 17 5.78027C16.9998 3.36722 15.1818 1.5 13.0273 1.5Z" fill="#1E1E2A"/>
</svg>
