<svg width="23" height="23" viewBox="0 0 23 23" fill="none" xmlns="http://www.w3.org/2000/svg">
<path d="M11.4639 0C17.7951 0.000221995 22.9285 5.13264 22.9287 11.4639C22.9285 17.7951 17.7951 22.9285 11.4639 22.9287C5.13264 22.9285 0.000222 17.7951 0 11.4639C0.000255632 5.13266 5.13266 0.000255626 11.4639 0ZM11.4639 1.5C5.96109 1.50026 1.50026 5.96109 1.5 11.4639C1.50022 16.9667 5.96107 21.4285 11.4639 21.4287C16.9667 21.4285 21.4285 16.9667 21.4287 11.4639C21.4285 5.96107 16.9667 1.50022 11.4639 1.5ZM11.4629 3.21484C16.0192 3.21484 19.7128 6.90857 19.7129 11.4648C19.7129 16.0212 16.0193 19.7148 11.4629 19.7148C6.90659 19.7148 3.21289 16.0212 3.21289 11.4648C3.213 6.90862 6.90666 3.21493 11.4629 3.21484ZM11.4629 4.71484C7.73509 4.71493 4.713 7.73704 4.71289 11.4648C4.71289 15.1927 7.73502 18.2148 11.4629 18.2148C15.1908 18.2148 18.2129 15.1928 18.2129 11.4648C18.2128 7.73699 15.1908 4.71484 11.4629 4.71484ZM11.4648 6.42676C14.2457 6.42713 16.5 8.68196 16.5 11.4629C16.4996 14.2435 14.2454 16.4977 11.4648 16.498C8.68393 16.498 6.4291 14.2437 6.42871 11.4629C6.42871 8.68173 8.68368 6.42676 11.4648 6.42676ZM11.4648 7.92676C9.51211 7.92676 7.92871 9.51016 7.92871 11.4629C7.9291 13.4153 9.51235 14.998 11.4648 14.998C13.417 14.9977 14.9996 13.4151 15 11.4629C15 9.51038 13.4173 7.92713 11.4648 7.92676Z" fill="#1E1E2A"/>
</svg>
