<svg width="13" height="19" viewBox="0 0 13 19" fill="none" xmlns="http://www.w3.org/2000/svg">
<path d="M12.5941 4.46981L11.9663 6.61186H0.000355136L0.628196 4.46981H12.5941ZM6.98047 18.9102L0.221946 10.6374L0.185014 9.08629H3.54581C4.41986 9.08629 5.16465 8.96319 5.78019 8.71697C6.39572 8.46461 6.8666 8.08913 7.19283 7.59055C7.51906 7.08582 7.68217 6.45182 7.68217 5.68856C7.68217 4.56214 7.34363 3.67886 6.66655 3.03871C5.98947 2.3924 4.94922 2.06925 3.54581 2.06925H0.000355136L0.628196 0.00106478H3.54581C5.0477 0.00106478 6.27876 0.250354 7.23899 0.748934C8.20537 1.24136 8.91939 1.91844 9.38104 2.78018C9.84884 3.63577 10.0827 4.60523 10.0827 5.68856C10.0827 6.66726 9.86731 7.56901 9.43644 8.39382C9.01172 9.21248 8.32848 9.87109 7.38672 10.3697C6.45111 10.8683 5.2139 11.1175 3.67507 11.1175H3.61967L9.86115 18.7624V18.9102H6.98047ZM12.5941 0.00106478L11.9663 2.14311L2.54865 2.06925L3.17649 0.00106478H12.5941Z" fill="#1E1E2A"/>
</svg>
