<svg width="24" height="12" viewBox="0 0 24 12" fill="none" xmlns="http://www.w3.org/2000/svg">
<path d="M0.260171 11.7626C0.0770878 11.6044 -0.00936831 11.4198 0.000802998 11.2088C0.0109743 10.9978 0.0974304 10.8132 0.260171 10.6549L7.85814 4.08791C7.95985 4 8.06156 3.93846 8.16328 3.9033C8.26499 3.86813 8.37687 3.85055 8.49893 3.85055C8.62099 3.85055 8.73287 3.86813 8.83458 3.9033C8.9363 3.93846 9.03801 4 9.13972 4.08791L13.5948 7.93846L20.9486 1.58242H17.9888C17.7243 1.58242 17.5056 1.50769 17.3327 1.35824C17.1598 1.20879 17.0733 1.01978 17.0733 0.791209C17.0733 0.562637 17.1598 0.373626 17.3327 0.224176C17.5056 0.0747253 17.7243 0 17.9888 0H23.0846C23.349 0 23.5677 0.0747253 23.7406 0.224176C23.9135 0.373626 24 0.562637 24 0.791209V5.1956C24 5.40659 23.9135 5.59121 23.7406 5.74945C23.5677 5.90769 23.3592 5.98681 23.1151 5.98681C22.871 5.98681 22.6574 5.90769 22.4743 5.74945C22.2912 5.59121 22.1997 5.40659 22.1997 5.1956V2.74286L14.205 9.65275C14.1033 9.74066 14.0016 9.8022 13.8999 9.83736C13.7982 9.87253 13.6863 9.89011 13.5642 9.89011C13.4422 9.89011 13.3303 9.87253 13.2286 9.83736C13.1269 9.8022 13.0252 9.74066 12.9234 9.65275L8.46842 5.8022L1.54176 11.789C1.37902 11.9297 1.1705 12 0.916221 12C0.661938 12 0.443255 11.9209 0.260171 11.7626Z" fill="#1E1E2A"/>
</svg>
