<svg width="22" height="20" viewBox="0 0 22 20" fill="none" xmlns="http://www.w3.org/2000/svg">
<path d="M5.06009 6.75C7.34409 2.75 8.71709 0.75 10.7501 0.75C13.0601 0.75 14.5201 3.337 17.4381 8.512L17.8021 9.156C20.2271 13.456 21.4401 15.606 20.3441 17.178C19.2481 18.75 16.5361 18.75 11.1141 18.75H10.3861C4.96409 18.75 2.25209 18.75 1.15609 17.178C0.205086 15.814 0.993086 14.013 2.80409 10.75M10.7501 5.75V10.75" stroke="#1E1E2A" stroke-width="1.5" stroke-linecap="round"/>
<path d="M10.75 11.75C11.3023 11.75 11.75 11.3023 11.75 10.75C11.75 10.1977 11.3023 9.75 10.75 9.75C10.1977 9.75 9.75 10.1977 9.75 10.75C9.75 11.3023 10.1977 11.75 10.75 11.75Z" fill="#1E1E2A"/>
</svg>
