<svg width="42" height="42" viewBox="0 0 42 42" fill="none" xmlns="http://www.w3.org/2000/svg">
<path d="M20.7502 40.5C25.3194 40.5 29.7473 38.9156 33.2794 36.0169C36.8114 33.1181 39.2291 29.0844 40.1205 24.6029C41.0119 20.1214 40.3218 15.4695 38.1678 11.4398C36.0139 7.41007 32.5293 4.25188 28.3079 2.50333C24.0864 0.754778 19.3892 0.524055 15.0168 1.85047C10.6443 3.17689 6.86694 5.97838 4.32843 9.7776C1.78991 13.5768 0.64725 18.1387 1.09514 22.686C1.54304 27.2332 3.55378 31.4845 6.78475 34.7154" stroke="#4A3AFF" stroke-width="2" stroke-linecap="round"/>
<path d="M19.7363 14.9238C20.9946 14.9236 22.0144 13.9037 22.0146 12.6455C22.0146 11.3871 20.9947 10.3665 19.7363 10.3662C18.4778 10.3662 17.457 11.3869 17.457 12.6455C17.4573 13.9039 18.4779 14.9238 19.7363 14.9238ZM19.7383 31.6289C20.1525 31.6289 20.4883 31.2931 20.4883 30.8789V19.4844C20.4879 19.0705 20.1522 18.7344 19.7383 18.7344C19.3243 18.7344 18.9887 19.0705 18.9883 19.4844V30.8789C18.9883 31.2931 19.3241 31.6289 19.7383 31.6289Z" fill="#4A3AFF"/>
</svg>
