<svg width="20" height="16" viewBox="0 0 20 16" fill="none" xmlns="http://www.w3.org/2000/svg">
<path d="M3.8766 16C3.17035 16 2.57179 15.7117 2.08091 15.1352C1.58938 14.5586 1.34362 13.8585 1.34362 13.0349H0V1.83168C0 1.30953 0.149722 0.873902 0.449166 0.524794C0.748609 0.175687 1.12146 0.000755644 1.56771 0H14.4024V4.09861H16.6414L20 9.37263V13.0349H18.4323C18.4323 13.8585 18.1852 14.5586 17.6911 15.1352C17.197 15.7117 16.5968 15.9996 15.8906 15.9989C15.1843 15.9981 14.5861 15.7102 14.0958 15.1352C13.6056 14.5601 13.3598 13.86 13.3586 13.0349H6.41735C6.41735 13.863 6.17029 14.5643 5.67617 15.1386C5.18206 15.7129 4.58188 16 3.87563 16M3.87951 14.8665C4.31607 14.8665 4.68633 14.689 4.9903 14.3338C5.29427 13.9787 5.44626 13.5457 5.44626 13.0349C5.44626 12.524 5.29427 12.0914 4.9903 11.737C4.68633 11.3826 4.31607 11.2051 3.87951 11.2043C3.44296 11.2036 3.07269 11.3811 2.76872 11.737C2.46475 12.0929 2.31277 12.5256 2.31277 13.0349C2.31277 13.5442 2.46475 13.9768 2.76872 14.3327C3.07269 14.6886 3.44296 14.8673 3.87951 14.8665ZM0.96915 11.9014H1.59682C1.73458 11.4012 2.01559 10.9712 2.43985 10.6115C2.86412 10.2518 3.344 10.0712 3.87951 10.0697C4.39044 10.0697 4.86451 10.2465 5.30171 10.6002C5.73826 10.9531 6.02542 11.3868 6.16317 11.9014H13.4323V1.13347H1.56674C1.41735 1.13347 1.28056 1.20601 1.15638 1.35109C1.03156 1.49617 0.96915 1.65599 0.96915 1.83055V11.9014ZM15.8945 14.8665C16.331 14.8665 16.7013 14.689 17.0052 14.3338C17.3092 13.9779 17.4612 13.5449 17.4612 13.0349C17.4612 12.5248 17.3092 12.0922 17.0052 11.737C16.7013 11.3819 16.331 11.2043 15.8945 11.2043C15.4579 11.2043 15.0876 11.3819 14.7837 11.737C14.4797 12.0922 14.3277 12.5248 14.3277 13.0349C14.3277 13.5449 14.4797 13.9775 14.7837 14.3327C15.0876 14.6878 15.4579 14.8665 15.8945 14.8665ZM14.4024 9.63446H18.9736L16.1195 5.23208H14.4024V9.63446Z" fill="#280865"/>
</svg>
