<svg width="18" height="18" viewBox="0 0 18 18" fill="none" xmlns="http://www.w3.org/2000/svg">
<path d="M11.4444 16.6862H6.55438C2.87188 16.6862 1.29688 15.1112 1.29688 11.4287V11.3312C1.29688 8.00124 2.60938 6.39624 5.54938 6.11874C5.84938 6.09624 6.13438 6.32124 6.16438 6.62874C6.19438 6.93624 5.96938 7.21374 5.65438 7.24374C3.29938 7.46124 2.42188 8.57124 2.42188 11.3387V11.4362C2.42188 14.4887 3.50187 15.5687 6.55438 15.5687H11.4444C14.4969 15.5687 15.5769 14.4887 15.5769 11.4362V11.3387C15.5769 8.55624 14.6844 7.44624 12.2844 7.24374C11.9769 7.21374 11.7444 6.94374 11.7744 6.63624C11.8044 6.32874 12.0669 6.09624 12.3819 6.12624C15.3669 6.38124 16.7019 7.99374 16.7019 11.3462V11.4437C16.7019 15.1112 15.1269 16.6862 11.4444 16.6862Z" fill="white"/>
<path d="M9 11.8123C8.6925 11.8123 8.4375 11.5573 8.4375 11.2498V2.71484C8.4375 2.40734 8.6925 2.15234 9 2.15234C9.3075 2.15234 9.5625 2.40734 9.5625 2.71484V11.2498C9.5625 11.5573 9.3075 11.8123 9 11.8123Z" fill="white"/>
<path d="M11.5134 4.94812C11.3709 4.94812 11.2284 4.89563 11.1159 4.78312L9.00086 2.66812L6.88586 4.78312C6.66836 5.00063 6.30836 5.00063 6.09086 4.78312C5.87336 4.56562 5.87336 4.20563 6.09086 3.98813L8.60336 1.47563C8.82086 1.25813 9.18086 1.25813 9.39836 1.47563L11.9109 3.98813C12.1284 4.20563 12.1284 4.56562 11.9109 4.78312C11.8059 4.89563 11.6559 4.94812 11.5134 4.94812Z" fill="white"/>
</svg>
