<svg width="22" height="22" viewBox="0 0 22 22" fill="none" xmlns="http://www.w3.org/2000/svg">
<path d="M3.68565 5.4712C2.52148 7.0112 1.83398 8.92703 1.83398 10.9987C1.83398 16.0587 5.94065 20.1654 11.0007 20.1654C16.0607 20.1654 20.1673 16.0587 20.1673 10.9987C20.1673 5.9387 16.0607 1.83203 11.0007 1.83203" stroke="#280865" stroke-width="1.5" stroke-linecap="round" stroke-linejoin="round"/>
<path d="M4.58398 10.9987C4.58398 14.5462 7.45315 17.4154 11.0007 17.4154C14.5481 17.4154 17.4173 14.5462 17.4173 10.9987C17.4173 7.4512 14.5481 4.58203 11.0007 4.58203" stroke="#280865" stroke-width="1.5" stroke-linecap="round" stroke-linejoin="round"/>
<path d="M11 14.6654C13.0258 14.6654 14.6667 13.0245 14.6667 10.9987C14.6667 8.97286 13.0258 7.33203 11 7.33203" stroke="#280865" stroke-width="1.5" stroke-linecap="round" stroke-linejoin="round"/>
</svg>
