<svg width="22" height="22" viewBox="0 0 22 22" fill="none" xmlns="http://www.w3.org/2000/svg">
<path d="M11 13.75C12.5188 13.75 13.75 12.5188 13.75 11C13.75 9.48122 12.5188 8.25 11 8.25C9.48122 8.25 8.25 9.48122 8.25 11C8.25 12.5188 9.48122 13.75 11 13.75Z" stroke="#280865" stroke-width="1.5" stroke-miterlimit="10" stroke-linecap="round" stroke-linejoin="round"/>
<path d="M1.83398 11.8066V10.1933C1.83398 9.23998 2.61315 8.45165 3.57565 8.45165C5.23482 8.45165 5.91315 7.27832 5.07898 5.83915C4.60232 5.01415 4.88648 3.94165 5.72065 3.46498L7.30648 2.55748C8.03065 2.12665 8.96565 2.38332 9.39648 3.10748L9.49732 3.28165C10.3223 4.72082 11.679 4.72082 12.5131 3.28165L12.614 3.10748C13.0448 2.38332 13.9798 2.12665 14.704 2.55748L16.2898 3.46498C17.124 3.94165 17.4081 5.01415 16.9315 5.83915C16.0973 7.27832 16.7757 8.45165 18.4348 8.45165C19.3881 8.45165 20.1765 9.23082 20.1765 10.1933V11.8066C20.1765 12.76 19.3973 13.5483 18.4348 13.5483C16.7757 13.5483 16.0973 14.7216 16.9315 16.1608C17.4081 16.995 17.124 18.0583 16.2898 18.535L14.704 19.4425C13.9798 19.8733 13.0448 19.6166 12.614 18.8925L12.5131 18.7183C11.6881 17.2791 10.3315 17.2791 9.49732 18.7183L9.39648 18.8925C8.96565 19.6166 8.03065 19.8733 7.30648 19.4425L5.72065 18.535C4.88648 18.0583 4.60232 16.9858 5.07898 16.1608C5.91315 14.7216 5.23482 13.5483 3.57565 13.5483C2.61315 13.5483 1.83398 12.76 1.83398 11.8066Z" stroke="#280865" stroke-width="1.5" stroke-miterlimit="10" stroke-linecap="round" stroke-linejoin="round"/>
</svg>
