<svg width="16" height="18" viewBox="0 0 16 18" fill="none" xmlns="http://www.w3.org/2000/svg">
<path d="M2.37563 0.75H13.1244C14.0213 0.75 14.75 1.4732 14.75 2.36329V4.14348C14.75 4.79714 14.3436 5.60379 13.9372 6.00711L10.4337 9.08071C9.94319 9.48403 9.62087 10.2907 9.62087 10.9443V14.4213C9.62087 14.908 9.29855 15.5478 8.89214 15.7981L7.75701 16.5074C6.69194 17.1611 5.23448 16.424 5.23448 15.1306V10.847C5.23448 10.2768 4.91216 9.55357 4.57583 9.15025L1.47873 5.90975C1.07232 5.52034 0.75 4.78323 0.75 4.29646V2.44674C0.75 1.4732 1.47873 0.75 2.37563 0.75Z" stroke="white" stroke-width="1.5" stroke-miterlimit="10" stroke-linecap="round" stroke-linejoin="round"/>
</svg>
