<svg width="14" height="14" viewBox="0 0 14 14" fill="none" xmlns="http://www.w3.org/2000/svg">
<path d="M3.07982 12C2.67814 12 2.3377 11.8378 2.05852 11.5135C1.77896 11.1892 1.63918 10.7954 1.63918 10.3321H0.875V4.03032C0.875 3.73661 0.960154 3.49157 1.13046 3.2952C1.30077 3.09882 1.51283 3.00043 1.76664 3H9.06637V5.30547H10.3398L12.25 8.2721V10.3321H11.3584C11.3584 10.7954 11.2178 11.1892 10.9368 11.5135C10.6558 11.8378 10.3144 11.9998 9.91276 11.9994C9.51108 11.9989 9.17083 11.837 8.89201 11.5135C8.61319 11.1901 8.47341 10.7963 8.47268 10.3321H4.52487C4.52487 10.798 4.38435 11.1924 4.10332 11.5154C3.8223 11.8385 3.48094 12 3.07926 12M3.08147 11.3624C3.32976 11.3624 3.54035 11.2625 3.71323 11.0628C3.88612 10.863 3.97256 10.6194 3.97256 10.3321C3.97256 10.0448 3.88612 9.80143 3.71323 9.60208C3.54035 9.40273 3.32976 9.30285 3.08147 9.30242C2.83318 9.302 2.62259 9.40188 2.44971 9.60208C2.27683 9.80228 2.19039 10.0456 2.19039 10.3321C2.19039 10.6186 2.27683 10.8619 2.44971 11.0621C2.62259 11.2623 2.83318 11.3629 3.08147 11.3624ZM1.4262 9.69453H1.78319C1.86154 9.41315 2.02136 9.1713 2.26267 8.96897C2.50397 8.76665 2.7769 8.66506 3.08147 8.66421C3.37206 8.66421 3.64169 8.76367 3.89035 8.9626C4.13864 9.16109 4.30196 9.40507 4.38031 9.69453H8.51461V3.63757H1.76609C1.68112 3.63757 1.60332 3.67838 1.53269 3.75999C1.4617 3.8416 1.4262 3.9315 1.4262 4.02968V9.69453ZM9.91497 11.3624C10.1633 11.3624 10.3738 11.2625 10.5467 11.0628C10.7196 10.8626 10.8061 10.619 10.8061 10.3321C10.8061 10.0452 10.7196 9.80186 10.5467 9.60208C10.3738 9.40231 10.1633 9.30242 9.91497 9.30242C9.66668 9.30242 9.45609 9.40231 9.28321 9.60208C9.11032 9.80186 9.02388 10.0452 9.02388 10.3321C9.02388 10.619 9.11032 10.8624 9.28321 11.0621C9.45609 11.2619 9.66668 11.3624 9.91497 11.3624ZM9.06637 8.41938H11.6662L10.043 5.94304H9.06637V8.41938Z" fill="#6C6C80"/>
</svg>
