<svg width="101" height="40" viewBox="0 0 101 40" fill="none" xmlns="http://www.w3.org/2000/svg">
<g filter="url(#filter0_i_1748_41087)">
<rect width="101" height="40" rx="8" fill="#7E30ED"/>
<path d="M27.4444 27.6862H22.5544C18.8719 27.6862 17.2969 26.1112 17.2969 22.4287V22.3312C17.2969 19.0012 18.6094 17.3962 21.5494 17.1187C21.8494 17.0962 22.1344 17.3212 22.1644 17.6287C22.1944 17.9362 21.9694 18.2137 21.6544 18.2437C19.2994 18.4612 18.4219 19.5712 18.4219 22.3387V22.4362C18.4219 25.4887 19.5019 26.5687 22.5544 26.5687H27.4444C30.4969 26.5687 31.5769 25.4887 31.5769 22.4362V22.3387C31.5769 19.5562 30.6844 18.4462 28.2844 18.2437C27.9769 18.2137 27.7444 17.9437 27.7744 17.6362C27.8044 17.3287 28.0669 17.0962 28.3819 17.1262C31.3669 17.3812 32.7019 18.9937 32.7019 22.3462V22.4437C32.7019 26.1112 31.1269 27.6862 27.4444 27.6862Z" fill="white"/>
<path d="M25 22.8123C24.6925 22.8123 24.4375 22.5573 24.4375 22.2498V13.7148C24.4375 13.4073 24.6925 13.1523 25 13.1523C25.3075 13.1523 25.5625 13.4073 25.5625 13.7148V22.2498C25.5625 22.5573 25.3075 22.8123 25 22.8123Z" fill="white"/>
<path d="M27.5134 15.9481C27.3709 15.9481 27.2284 15.8956 27.1159 15.7831L25.0009 13.6681L22.8859 15.7831C22.6684 16.0006 22.3084 16.0006 22.0909 15.7831C21.8734 15.5656 21.8734 15.2056 22.0909 14.9881L24.6034 12.4756C24.8209 12.2581 25.1809 12.2581 25.3984 12.4756L27.9109 14.9881C28.1284 15.2056 28.1284 15.5656 27.9109 15.7831C27.8059 15.8956 27.6559 15.9481 27.5134 15.9481Z" fill="white"/>
<path d="M43.64 25V14.8182H49.7849V15.9119H44.8729V19.3523H49.4667V20.446H44.8729V23.9062H49.8644V25H43.64ZM52.4431 17.3636L54.2726 20.4858L56.1022 17.3636H57.4544L54.9885 21.1818L57.4544 25H56.1022L54.2726 22.0369L52.4431 25H51.0908L53.5169 21.1818L51.0908 17.3636H52.4431ZM58.8486 27.8636V17.3636H59.9822V18.5767H60.1214C60.2075 18.4441 60.3268 18.2751 60.4793 18.0696C60.6351 17.8608 60.8572 17.6752 61.1455 17.5128C61.4372 17.3471 61.8316 17.2642 62.3287 17.2642C62.9717 17.2642 63.5385 17.425 64.029 17.7464C64.5196 18.0679 64.9024 18.5237 65.1775 19.1136C65.4526 19.7036 65.5901 20.3996 65.5901 21.2017C65.5901 22.0104 65.4526 22.7114 65.1775 23.3047C64.9024 23.8946 64.5212 24.352 64.034 24.6768C63.5468 24.9983 62.985 25.1591 62.3486 25.1591C61.8581 25.1591 61.4653 25.0779 61.1704 24.9155C60.8754 24.7498 60.6483 24.5625 60.4893 24.3537C60.3302 24.1416 60.2075 23.9659 60.1214 23.8267H60.0219V27.8636H58.8486ZM60.002 21.1818C60.002 21.7585 60.0866 22.2673 60.2556 22.7081C60.4246 23.1456 60.6715 23.4886 60.9964 23.7372C61.3212 23.9825 61.7189 24.1051 62.1895 24.1051C62.6801 24.1051 63.0894 23.9759 63.4175 23.7173C63.749 23.4555 63.9975 23.1042 64.1633 22.6634C64.3323 22.2192 64.4168 21.7254 64.4168 21.1818C64.4168 20.6449 64.334 20.161 64.1682 19.7301C64.0058 19.2959 63.7589 18.9529 63.4275 18.701C63.0993 18.4458 62.6867 18.3182 62.1895 18.3182C61.7123 18.3182 61.3112 18.4392 60.9864 18.6811C60.6616 18.9197 60.4163 19.2545 60.2506 19.6854C60.0849 20.1129 60.002 20.6117 60.002 21.1818ZM70.2022 25.1591C69.5128 25.1591 68.9079 24.995 68.3875 24.6669C67.8705 24.3388 67.4661 23.8797 67.1745 23.2898C66.8861 22.6998 66.7419 22.0104 66.7419 21.2216C66.7419 20.4261 66.8861 19.7318 67.1745 19.1385C67.4661 18.5452 67.8705 18.0845 68.3875 17.7564C68.9079 17.4283 69.5128 17.2642 70.2022 17.2642C70.8915 17.2642 71.4948 17.4283 72.0118 17.7564C72.5322 18.0845 72.9365 18.5452 73.2249 19.1385C73.5165 19.7318 73.6624 20.4261 73.6624 21.2216C73.6624 22.0104 73.5165 22.6998 73.2249 23.2898C72.9365 23.8797 72.5322 24.3388 72.0118 24.6669C71.4948 24.995 70.8915 25.1591 70.2022 25.1591ZM70.2022 24.1051C70.7258 24.1051 71.1567 23.9709 71.4948 23.7024C71.8328 23.4339 72.0831 23.081 72.2455 22.6435C72.4079 22.206 72.4891 21.732 72.4891 21.2216C72.4891 20.7112 72.4079 20.2356 72.2455 19.7947C72.0831 19.3539 71.8328 18.9976 71.4948 18.7259C71.1567 18.4541 70.7258 18.3182 70.2022 18.3182C69.6785 18.3182 69.2476 18.4541 68.9095 18.7259C68.5715 18.9976 68.3212 19.3539 68.1588 19.7947C67.9964 20.2356 67.9152 20.7112 67.9152 21.2216C67.9152 21.732 67.9964 22.206 68.1588 22.6435C68.3212 23.081 68.5715 23.4339 68.9095 23.7024C69.2476 23.9709 69.6785 24.1051 70.2022 24.1051ZM75.1734 25V17.3636H76.3069V18.517H76.3865C76.5257 18.1392 76.7776 17.8326 77.1421 17.5973C77.5067 17.362 77.9177 17.2443 78.3751 17.2443C78.4613 17.2443 78.569 17.246 78.6983 17.2493C78.8275 17.2526 78.9253 17.2576 78.9916 17.2642V18.4574C78.9518 18.4474 78.8607 18.4325 78.7181 18.4126C78.5789 18.3894 78.4314 18.3778 78.2757 18.3778C77.9045 18.3778 77.573 18.4557 77.2814 18.6115C76.993 18.764 76.7643 18.9761 76.5953 19.2479C76.4296 19.5163 76.3467 19.8229 76.3467 20.1676V25H75.1734ZM83.9019 17.3636V18.358H79.9445V17.3636H83.9019ZM81.0979 15.5341H82.2712V22.8125C82.2712 23.1439 82.3193 23.3925 82.4154 23.5582C82.5148 23.7206 82.6408 23.83 82.7933 23.8864C82.949 23.9394 83.1131 23.9659 83.2854 23.9659C83.4147 23.9659 83.5208 23.9593 83.6036 23.946C83.6865 23.9295 83.7528 23.9162 83.8025 23.9062L84.0411 24.9602C83.9616 24.9901 83.8505 25.0199 83.708 25.0497C83.5655 25.0829 83.3849 25.0994 83.1661 25.0994C82.8347 25.0994 82.5099 25.0282 82.1917 24.8857C81.8768 24.7431 81.615 24.526 81.4062 24.2344C81.2007 23.9427 81.0979 23.5748 81.0979 23.1307V15.5341Z" fill="white"/>
</g>
<defs>
<filter id="filter0_i_1748_41087" x="0" y="0" width="101" height="40" filterUnits="userSpaceOnUse" color-interpolation-filters="sRGB">
<feFlood flood-opacity="0" result="BackgroundImageFix"/>
<feBlend mode="normal" in="SourceGraphic" in2="BackgroundImageFix" result="shape"/>
<feColorMatrix in="SourceAlpha" type="matrix" values="0 0 0 0 0 0 0 0 0 0 0 0 0 0 0 0 0 0 127 0" result="hardAlpha"/>
<feMorphology radius="1" operator="erode" in="SourceAlpha" result="effect1_innerShadow_1748_41087"/>
<feOffset/>
<feGaussianBlur stdDeviation="4"/>
<feComposite in2="hardAlpha" operator="arithmetic" k2="-1" k3="1"/>
<feColorMatrix type="matrix" values="0 0 0 0 0 0 0 0 0 0 0 0 0 0 0 0 0 0 0.4 0"/>
<feBlend mode="normal" in2="shape" result="effect1_innerShadow_1748_41087"/>
</filter>
</defs>
</svg>
