<svg width="101" height="40" viewBox="0 0 101 40" fill="none" xmlns="http://www.w3.org/2000/svg">
<g filter="url(#filter0_i_1748_41091)">
<rect x="0.5" y="0.5" width="100" height="39" rx="7.5" stroke="#6C6C80"/>
<path d="M18.833 14.8108C19.4855 14.6158 20.2055 14.4883 21.0005 14.4883C24.593 14.4883 27.503 17.3983 27.503 20.9908C27.503 24.5833 24.593 27.4933 21.0005 27.4933C17.408 27.4933 14.498 24.5833 14.498 20.9908C14.498 19.6558 14.903 18.4108 15.593 17.3758" stroke="#6C6C80" stroke-width="1.5" stroke-linecap="round" stroke-linejoin="round"/>
<path d="M17.9023 14.99L20.0698 12.5" stroke="#6C6C80" stroke-width="1.5" stroke-linecap="round" stroke-linejoin="round"/>
<path d="M17.9023 14.9883L20.4298 16.8333" stroke="#6C6C80" stroke-width="1.5" stroke-linecap="round" stroke-linejoin="round"/>
<path d="M39.6843 25V14.8182H43.1246C43.9201 14.8182 44.573 14.9541 45.0834 15.2259C45.5938 15.4943 45.9717 15.8639 46.217 16.3345C46.4622 16.8052 46.5849 17.3404 46.5849 17.9403C46.5849 18.5402 46.4622 19.0722 46.217 19.5362C45.9717 20.0002 45.5955 20.3648 45.0884 20.63C44.5813 20.8918 43.9333 21.0227 43.1445 21.0227H40.3604V19.9091H43.1047C43.6483 19.9091 44.0858 19.8295 44.4172 19.6705C44.752 19.5114 44.9939 19.286 45.1431 18.9943C45.2956 18.6993 45.3718 18.348 45.3718 17.9403C45.3718 17.5327 45.2956 17.1764 45.1431 16.8714C44.9906 16.5665 44.747 16.3312 44.4123 16.1655C44.0775 15.9964 43.635 15.9119 43.0849 15.9119H40.9172V25H39.6843ZM44.4769 20.4261L46.9826 25H45.5508L43.0849 20.4261H44.4769ZM51.3199 25.1591C50.5841 25.1591 49.9494 24.9967 49.4158 24.6719C48.8855 24.3438 48.4762 23.8864 48.1878 23.2997C47.9028 22.7098 47.7603 22.0237 47.7603 21.2415C47.7603 20.4593 47.9028 19.7699 48.1878 19.1733C48.4762 18.5734 48.8772 18.1061 49.391 17.7713C49.908 17.4332 50.5112 17.2642 51.2006 17.2642C51.5984 17.2642 51.9911 17.3305 52.3789 17.4631C52.7667 17.5956 53.1197 17.8111 53.4378 18.1094C53.756 18.4044 54.0096 18.7955 54.1985 19.2827C54.3874 19.7699 54.4819 20.3698 54.4819 21.0824V21.5795H48.5955V20.5653H53.2887C53.2887 20.1345 53.2025 19.75 53.0302 19.4119C52.8611 19.0739 52.6192 18.8071 52.3043 18.6115C51.9928 18.416 51.6249 18.3182 51.2006 18.3182C50.7333 18.3182 50.3289 18.4342 49.9876 18.6662C49.6495 18.8949 49.3893 19.1932 49.207 19.5611C49.0247 19.929 48.9336 20.3234 48.9336 20.7443V21.4205C48.9336 21.9972 49.033 22.486 49.2319 22.8871C49.4341 23.2848 49.7141 23.5881 50.0721 23.7969C50.43 24.0024 50.846 24.1051 51.3199 24.1051C51.6282 24.1051 51.9066 24.062 52.1552 23.9759C52.4071 23.8864 52.6242 23.7538 52.8064 23.5781C52.9887 23.3991 53.1296 23.1771 53.229 22.9119L54.3626 23.2301C54.2432 23.6146 54.0427 23.9527 53.761 24.2443C53.4793 24.5327 53.1313 24.758 52.717 24.9205C52.3027 25.0795 51.837 25.1591 51.3199 25.1591ZM59.3872 17.3636V18.358H55.2708V17.3636H59.3872ZM56.5037 25V16.3097C56.5037 15.8722 56.6065 15.5076 56.812 15.2159C57.0175 14.9242 57.2843 14.7055 57.6124 14.5597C57.9405 14.4138 58.2869 14.3409 58.6514 14.3409C58.9398 14.3409 59.1751 14.3641 59.3574 14.4105C59.5397 14.4569 59.6756 14.5 59.7651 14.5398L59.427 15.554C59.3674 15.5341 59.2845 15.5092 59.1784 15.4794C59.0757 15.4496 58.9398 15.4347 58.7708 15.4347C58.383 15.4347 58.1029 15.5324 57.9306 15.728C57.7615 15.9235 57.677 16.2102 57.677 16.5881V25H56.5037ZM60.7516 25V17.3636H61.8851V18.517H61.9647C62.1039 18.1392 62.3558 17.8326 62.7203 17.5973C63.0849 17.362 63.4959 17.2443 63.9533 17.2443C64.0395 17.2443 64.1472 17.246 64.2765 17.2493C64.4057 17.2526 64.5035 17.2576 64.5698 17.2642V18.4574C64.53 18.4474 64.4389 18.4325 64.2963 18.4126C64.1571 18.3894 64.0096 18.3778 63.8539 18.3778C63.4827 18.3778 63.1512 18.4557 62.8596 18.6115C62.5712 18.764 62.3425 18.9761 62.1735 19.2479C62.0078 19.5163 61.9249 19.8229 61.9249 20.1676V25H60.7516ZM68.6499 25.1591C67.9141 25.1591 67.2794 24.9967 66.7457 24.6719C66.2154 24.3438 65.8061 23.8864 65.5178 23.2997C65.2327 22.7098 65.0902 22.0237 65.0902 21.2415C65.0902 20.4593 65.2327 19.7699 65.5178 19.1733C65.8061 18.5734 66.2072 18.1061 66.7209 17.7713C67.2379 17.4332 67.8412 17.2642 68.5305 17.2642C68.9283 17.2642 69.321 17.3305 69.7088 17.4631C70.0966 17.5956 70.4496 17.8111 70.7678 18.1094C71.0859 18.4044 71.3395 18.7955 71.5284 19.2827C71.7173 19.7699 71.8118 20.3698 71.8118 21.0824V21.5795H65.9254V20.5653H70.6186C70.6186 20.1345 70.5324 19.75 70.3601 19.4119C70.1911 19.0739 69.9491 18.8071 69.6342 18.6115C69.3227 18.416 68.9548 18.3182 68.5305 18.3182C68.0632 18.3182 67.6589 18.4342 67.3175 18.6662C66.9794 18.8949 66.7192 19.1932 66.5369 19.5611C66.3546 19.929 66.2635 20.3234 66.2635 20.7443V21.4205C66.2635 21.9972 66.3629 22.486 66.5618 22.8871C66.764 23.2848 67.044 23.5881 67.402 23.7969C67.7599 24.0024 68.1759 24.1051 68.6499 24.1051C68.9581 24.1051 69.2365 24.062 69.4851 23.9759C69.737 23.8864 69.9541 23.7538 70.1364 23.5781C70.3187 23.3991 70.4595 23.1771 70.559 22.9119L71.6925 23.2301C71.5732 23.6146 71.3726 23.9527 71.0909 24.2443C70.8092 24.5327 70.4612 24.758 70.0469 24.9205C69.6326 25.0795 69.1669 25.1591 68.6499 25.1591ZM78.7257 19.0739L77.6717 19.3722C77.6054 19.1965 77.5076 19.0258 77.3784 18.8601C77.2524 18.6911 77.0801 18.5518 76.8613 18.4425C76.6426 18.3331 76.3625 18.2784 76.0211 18.2784C75.5538 18.2784 75.1644 18.3861 74.8528 18.6016C74.5446 18.8137 74.3905 19.0838 74.3905 19.4119C74.3905 19.7036 74.4965 19.9339 74.7086 20.103C74.9208 20.272 75.2522 20.4129 75.703 20.5256L76.8365 20.804C77.5192 20.9697 78.028 21.2232 78.3628 21.5646C78.6975 21.9027 78.8649 22.3385 78.8649 22.8722C78.8649 23.3097 78.7389 23.7008 78.4871 24.0455C78.2385 24.3902 77.8905 24.6619 77.443 24.8608C76.9956 25.0597 76.4752 25.1591 75.8819 25.1591C75.1031 25.1591 74.4584 24.9901 73.948 24.652C73.4376 24.3139 73.1144 23.8201 72.9785 23.1705L74.0922 22.892C74.1982 23.303 74.3987 23.6113 74.6937 23.8168C74.992 24.0223 75.3815 24.125 75.8621 24.125C76.4089 24.125 76.8431 24.009 77.1646 23.777C77.4894 23.5417 77.6518 23.2599 77.6518 22.9318C77.6518 22.6667 77.559 22.4446 77.3734 22.2656C77.1878 22.0833 76.9028 21.9474 76.5183 21.858L75.2456 21.5597C74.5462 21.3939 74.0325 21.1371 73.7044 20.7891C73.3796 20.4377 73.2172 19.9986 73.2172 19.4716C73.2172 19.0407 73.3381 18.6596 73.5801 18.3281C73.8254 17.9967 74.1585 17.7365 74.5794 17.5476C75.0036 17.3587 75.4842 17.2642 76.0211 17.2642C76.7768 17.2642 77.3701 17.4299 77.801 17.7614C78.2352 18.0928 78.5434 18.5303 78.7257 19.0739ZM81.5243 20.4062V25H80.3511V14.8182H81.5243V18.5568H81.6238C81.8028 18.1624 82.0712 17.8492 82.4292 17.6172C82.7904 17.3819 83.271 17.2642 83.8709 17.2642C84.3913 17.2642 84.847 17.3686 85.2381 17.5774C85.6292 17.7829 85.9325 18.0994 86.1479 18.527C86.3667 18.9512 86.4761 19.4915 86.4761 20.1477V25H85.3028V20.2273C85.3028 19.6207 85.1453 19.1518 84.8305 18.8203C84.5189 18.4856 84.0864 18.3182 83.5329 18.3182C83.1484 18.3182 82.8037 18.3994 82.4988 18.5618C82.1972 18.7242 81.9585 18.9612 81.7829 19.2727C81.6105 19.5843 81.5243 19.9621 81.5243 20.4062Z" fill="#6C6C80"/>
</g>
<defs>
<filter id="filter0_i_1748_41091" x="0" y="0" width="101" height="40" filterUnits="userSpaceOnUse" color-interpolation-filters="sRGB">
<feFlood flood-opacity="0" result="BackgroundImageFix"/>
<feBlend mode="normal" in="SourceGraphic" in2="BackgroundImageFix" result="shape"/>
<feColorMatrix in="SourceAlpha" type="matrix" values="0 0 0 0 0 0 0 0 0 0 0 0 0 0 0 0 0 0 127 0" result="hardAlpha"/>
<feMorphology radius="1" operator="erode" in="SourceAlpha" result="effect1_innerShadow_1748_41091"/>
<feOffset/>
<feGaussianBlur stdDeviation="4"/>
<feComposite in2="hardAlpha" operator="arithmetic" k2="-1" k3="1"/>
<feColorMatrix type="matrix" values="0 0 0 0 0 0 0 0 0 0 0 0 0 0 0 0 0 0 0.4 0"/>
<feBlend mode="normal" in2="shape" result="effect1_innerShadow_1748_41091"/>
</filter>
</defs>
</svg>
